<svg id="visual" viewBox="0 0 1920 1080" width="1920" height="1080" xmlns="http://www.w3.org/2000/svg" xmlns:xlink="http://www.w3.org/1999/xlink" version="1.1"><rect x="0" y="0" width="1920" height="1080" fill="#062d87"></rect><defs><linearGradient id="grad1_0" x1="43.8%" y1="0%" x2="100%" y2="100%"><stop offset="14.444444444444446%" stop-color="#394bf7" stop-opacity="1"></stop><stop offset="85.55555555555554%" stop-color="#394bf7" stop-opacity="1"></stop></linearGradient></defs><defs><linearGradient id="grad1_1" x1="43.8%" y1="0%" x2="100%" y2="100%"><stop offset="14.444444444444446%" stop-color="#394bf7" stop-opacity="1"></stop><stop offset="85.55555555555554%" stop-color="#062d87" stop-opacity="1"></stop></linearGradient></defs><defs><linearGradient id="grad2_0" x1="0%" y1="0%" x2="56.3%" y2="100%"><stop offset="14.444444444444446%" stop-color="#394bf7" stop-opacity="1"></stop><stop offset="85.55555555555554%" stop-color="#394bf7" stop-opacity="1"></stop></linearGradient></defs><defs><linearGradient id="grad2_1" x1="0%" y1="0%" x2="56.3%" y2="100%"><stop offset="14.444444444444446%" stop-color="#062d87" stop-opacity="1"></stop><stop offset="85.55555555555554%" stop-color="#394bf7" stop-opacity="1"></stop></linearGradient></defs><g transform="translate(1920, 0)"><path d="M0 972C-90.1 925.5 -180.1 879 -276.9 852.1C-373.6 825.3 -477.1 818.2 -561.9 773.4C-646.7 728.6 -712.8 646.1 -774.2 562.5C-835.6 478.9 -892.3 394.3 -924.4 300.4C-956.6 206.4 -964.3 103.2 -972 0L0 0Z" fill="#193dbe"></path><path d="M0 486C-45 462.7 -90.1 439.5 -138.4 426.1C-186.8 412.7 -238.6 409.1 -281 386.7C-323.4 364.3 -356.4 323 -387.1 281.3C-417.8 239.5 -446.1 197.1 -462.2 150.2C-478.3 103.2 -482.1 51.6 -486 0L0 0Z" fill="#394bf7"></path></g><g transform="translate(0, 1080)"><path d="M0 -972C95 -940.7 190 -909.4 287.1 -883.5C384.2 -857.7 483.5 -837.3 571.3 -786.4C659.2 -735.4 735.6 -653.9 773.4 -561.9C811.2 -469.9 810.3 -367.3 836.9 -271.9C863.6 -176.5 917.8 -88.3 972 0L0 0Z" fill="#193dbe"></path><path d="M0 -486C47.5 -470.3 95 -454.7 143.5 -441.8C192.1 -428.8 241.7 -418.6 285.7 -393.2C329.6 -367.7 367.8 -327 386.7 -281C405.6 -235 405.1 -183.7 418.5 -136C431.8 -88.3 458.9 -44.1 486 0L0 0Z" fill="#394bf7"></path></g></svg>