<?xml version="1.0" encoding="UTF-8" standalone="no"?>
<svg
   width="353.9px"
   height="83.6px"
   viewBox="73.05000000000001 33.2 353.9 83.6"
   style="background: rgba(0, 0, 0, 0);"
   preserveAspectRatio="xMidYMid"
   version="1.1"
   id="svg551"
   sodipodi:docname="finish.svg"
   inkscape:version="1.2.2 (732a01da63, 2022-12-09)"
   xmlns:inkscape="http://www.inkscape.org/namespaces/inkscape"
   xmlns:sodipodi="http://sodipodi.sourceforge.net/DTD/sodipodi-0.dtd"
   xmlns="http://www.w3.org/2000/svg"
   xmlns:svg="http://www.w3.org/2000/svg">
  <sodipodi:namedview
     id="namedview553"
     pagecolor="#ffffff"
     bordercolor="#000000"
     borderopacity="0.25"
     inkscape:showpageshadow="2"
     inkscape:pageopacity="0.0"
     inkscape:pagecheckerboard="0"
     inkscape:deskcolor="#d1d1d1"
     showgrid="false"
     inkscape:zoom="3.419045"
     inkscape:cx="176.95"
     inkscape:cy="41.824545"
     inkscape:window-width="1920"
     inkscape:window-height="1027"
     inkscape:window-x="1912"
     inkscape:window-y="-8"
     inkscape:window-maximized="1"
     inkscape:current-layer="svg551" />
  <defs
     id="defs541">
    <filter
       id="editing-vr"
       x="-0.0082877507"
       y="-0.02688172"
       width="1.0165755"
       height="1.0537634">
      <feFlood
         flood-color="#f00"
         flood-opacity="0.7"
         result="c1"
         id="feFlood524" />
      <feFlood
         flood-color="#0000ff"
         flood-opacity="0.7"
         result="c3"
         id="feFlood526" />
      <feComposite
         operator="in"
         in="c1"
         in2="SourceAlpha"
         result="text-c1"
         id="feComposite528" />
      <feComposite
         operator="in"
         in="c3"
         in2="SourceAlpha"
         result="text-c3"
         id="feComposite530" />
      <feOffset
         in="text-c1"
         dx="2"
         dy="1"
         result="text1"
         id="feOffset532" />
      <feOffset
         in="text-c3"
         dx="-2"
         dy="-1"
         result="text3"
         id="feOffset534" />
      <feBlend
         in="SourceGraphic"
         in2="text1"
         mode="multiply"
         result="text4"
         id="feBlend536" />
      <feBlend
         in="text4"
         in2="text3"
         mode="multiply"
         id="feBlend538" />
    </filter>
  </defs>
  <g
     filter="url(#editing-vr)"
     id="g547"
     transform="matrix(1.4399351,0,0,2.11172,-110.42248,-100.60842)"
     style="fill:#000000">
    <g
       transform="translate(127.65998,93.600002)"
       id="g545"
       style="fill:#000000">
      <path
         d="m 1.68,-24.8 v 0 0 q 1.16,-2.4 4.38,-2.4 v 0 0 q 3.22,0 4.72,1.86 v 0 0 q 1.5,1.86 1.5,6.14 v 0 14.28 L 22,-26.36 h 4.76 L 14.32,0 H 4.96 l -1.2,-19.2 v 0 q -0.12,-2.12 -0.7,-3.56 v 0 0 Q 2.48,-24.2 1.68,-24.8 Z m 33.04,22.6 v 0 0 q -1.24,3 -5.2,3 v 0 0 q -2,0 -3.28,-1.4 v 0 0 Q 25.2,-1.76 25.2,-3.08 v 0 0 q 0,-3 1.4,-9.56 v 0 l 2.92,-15.36 8.12,-0.8 -3.88,20.24 v 0 q -0.68,2.96 -0.68,4 v 0 0 q 0,2.28 1.64,2.36 z m 19.6,-4.56 v 0 0 q 1,0.68 1,2.18 v 0 0 q 0,1.5 -0.76,2.46 v 0 0 q -0.76,0.96 -2,1.6 v 0 0 Q 50,0.8 47.24,0.8 v 0 0 q -2.76,0 -4.38,-0.6 v 0 0 q -1.62,-0.6 -2.7,-1.72 v 0 0 q -2.12,-2.12 -2.12,-6 v 0 0 q 0,-6.04 3.28,-9.72 v 0 0 q 3.52,-3.96 9.64,-3.96 v 0 0 q 3.8,0 5.68,1.6 v 0 0 q 1.4,1.2 1.4,3.16 v 0 0 q 0,7.04 -12.16,7.04 v 0 0 q -0.16,1.04 -0.16,1.92 v 0 0 q 0,1.84 0.82,2.54 v 0 0 q 0.82,0.7 2.34,0.7 v 0 0 q 1.52,0 3.14,-0.7 v 0 0 q 1.62,-0.7 2.3,-1.82 z m -8.16,-4.36 v 0 0 q 2.84,0 4.48,-1.76 v 0 0 q 1.64,-1.68 1.64,-4.36 v 0 0 q 0,-0.92 -0.34,-1.42 v 0 0 q -0.34,-0.5 -1.02,-0.5 v 0 0 q -0.68,0 -1.26,0.26 v 0 0 q -0.58,0.26 -1.18,1.14 v 0 0 q -1.48,2 -2.32,6.64 z m 23.56,-7.84 v 0 0 q 2.16,-2.24 6.72,-2.24 v 0 0 q 2.52,0 3.9,1.34 v 0 0 q 1.38,1.34 1.38,3.8 v 0 0 q 0,2.46 -1.38,4.2 v 0 0 q -1.38,1.74 -3.94,2.46 v 0 0 q 0.2,0.8 0.48,1.64 v 0 l 0.56,1.6 v 0 q 0.76,2.04 1.36,2.76 v 0 0 q 0.6,0.72 1.4,0.96 v 0 0 q -0.44,1.64 -2.04,2.52 v 0 0 Q 76.88,0.8 75.12,0.8 v 0 0 q -5.16,0 -5.84,-7.96 v 0 0 Q 69.16,-8.28 69.16,-9.4 v 0 0 q 2,-0.56 3.4,-2.44 v 0 0 q 1.4,-1.88 1.4,-4.08 v 0 0 q 0,-2.2 -1.56,-2.2 v 0 0 q -1.12,0 -2,1.24 v 0 0 q -0.88,1.24 -1.28,3.36 v 0 L 66.48,0 58.4,0.8 64,-28 l 8.04,-0.8 -0.92,4.76 v 0 q -0.6,3.36 -1.4,5.08 z M 92.28,0.8 v 0 0 q -8.8,0 -8.8,-8.28 v 0 0 q 0,-5.88 3.24,-9.68 v 0 0 q 3.44,-4.04 9.4,-4.04 v 0 0 q 4.32,0 6.52,2 v 0 0 q 2.2,2 2.2,6.2 v 0 0 q 0,6.4 -3.44,10.12 v 0 0 Q 98.04,0.8 92.28,0.8 Z m 1.04,-17.4 v 0 0 q -0.48,1.08 -0.86,2.7 v 0 0 q -0.38,1.62 -0.86,4.18 v 0 0 Q 91.12,-7.16 91.12,-4 v 0 0 q 0,1.04 0.34,1.72 v 0 0 q 0.34,0.68 1.26,0.68 v 0 0 q 0.92,0 1.5,-0.44 v 0 0 q 0.58,-0.44 1.02,-1.48 v 0 0 q 0.8,-1.84 1.44,-5.26 v 0 0 q 0.64,-3.42 0.7,-4.9 v 0 0 q 0.06,-1.48 0.06,-2.58 v 0 0 q 0,-1.1 -0.32,-1.82 v 0 0 Q 96.8,-18.8 95.9,-18.8 v 0 0 q -0.9,0 -1.5,0.56 v 0 0 q -0.6,0.56 -1.08,1.64 z m 48.08,0 v 0 0 q 0,17.04 -18.48,17.04 v 0 0 q -2.96,0 -7.84,-0.72 v 0 l 4.48,-23.64 v 0 q 0.32,-1.6 0.52,-2.52 v 0 0 q 6.08,-0.44 8.78,-0.44 v 0 0 q 2.7,0 5.18,0.56 v 0 0 q 2.48,0.56 4.12,1.8 v 0 0 q 3.24,2.44 3.24,7.92 z m -8.24,-1.48 v 0 0 q 0,-5.96 -4.28,-5.96 v 0 h -0.4 v 0 q -0.2,0 -0.4,0.04 v 0 l -4.12,21.48 v 0 q 0.16,0.08 0.32,0.08 v 0 h 0.32 v 0 q 1.48,0 3.02,-0.92 v 0 0 q 1.54,-0.92 2.74,-2.8 v 0 0 q 2.8,-4.36 2.8,-11.92 z m 26.48,11.32 v 0 0 q 1,0.68 1,2.18 v 0 0 q 0,1.5 -0.76,2.46 v 0 0 q -0.76,0.96 -2,1.6 v 0 0 q -2.56,1.32 -5.32,1.32 v 0 0 q -2.76,0 -4.38,-0.6 v 0 0 q -1.62,-0.6 -2.7,-1.72 v 0 0 q -2.12,-2.12 -2.12,-6 v 0 0 q 0,-6.04 3.28,-9.72 v 0 0 q 3.52,-3.96 9.64,-3.96 v 0 0 q 3.8,0 5.68,1.6 v 0 0 q 1.4,1.2 1.4,3.16 v 0 0 q 0,7.04 -12.16,7.04 v 0 0 q -0.16,1.04 -0.16,1.92 v 0 0 q 0,1.84 0.82,2.54 v 0 0 q 0.82,0.7 2.34,0.7 v 0 0 q 1.52,0 3.14,-0.7 v 0 0 q 1.62,-0.7 2.3,-1.82 z m -8.16,-4.36 v 0 0 q 2.84,0 4.48,-1.76 v 0 0 q 1.64,-1.68 1.64,-4.36 v 0 0 q 0,-0.92 -0.34,-1.42 v 0 0 q -0.34,-0.5 -1.02,-0.5 v 0 0 q -0.68,0 -1.26,0.26 v 0 0 q -0.58,0.26 -1.18,1.14 v 0 0 q -1.48,2 -2.32,6.64 z m 25.2,-2.92 v 0 0 q 0.56,-1.48 0.56,-2.76 v 0 0 q 0,-2.36 -1.92,-2.36 v 0 0 q -1,0 -1.82,0.9 v 0 0 q -0.82,0.9 -0.82,2.02 v 0 0 q 0,0.8 0.64,1.44 v 0 0 q 0.92,0.88 3.28,2.32 v 0 0 q 2.36,1.44 3.26,2.62 v 0 0 q 0.9,1.18 0.9,2.8 v 0 0 q 0,1.62 -0.78,3.1 v 0 0 q -0.78,1.48 -2.18,2.52 v 0 0 q -3,2.24 -7.8,2.24 v 0 0 q -2.6,0 -4.6,-1.36 v 0 0 q -2,-1.32 -2,-2.88 v 0 0 q 0,-1.56 1.14,-2.48 v 0 0 q 1.14,-0.92 2.82,-0.92 v 0 0 q 1.68,0 2.72,0.64 v 0 0 q -0.52,1.32 -0.52,2.2 v 0 0 q 0,2.64 2.24,2.64 v 0 0 q 0.96,0 1.6,-0.6 v 0 0 q 0.64,-0.6 0.64,-1.64 v 0 0 q 0,-2.04 -3.44,-4.2 v 0 0 q -2.8,-1.84 -3.44,-2.56 v 0 0 q -1.08,-1.28 -1.08,-2.88 v 0 0 q 0,-1.6 0.76,-3.12 v 0 0 q 0.76,-1.52 2.16,-2.6 v 0 0 q 2.92,-2.24 8,-2.24 v 0 0 q 2.6,0 4.14,1.04 v 0 0 q 1.54,1.04 1.54,2.8 v 0 0 q 0,1.76 -1.06,2.76 v 0 0 q -1.06,1 -2.98,1 v 0 0 q -1.32,0 -1.96,-0.44 z m 17.08,11.84 v 0 0 q -1.24,3 -5.2,3 v 0 0 q -2.04,0 -3.32,-1.4 v 0 0 q -1.08,-1.24 -1.08,-2.48 v 0 0 q 0,-3.24 1.48,-9.56 v 0 l 1.48,-7.76 8.12,-0.8 -2.44,12.64 v 0 q -0.68,2.96 -0.68,4 v 0 0 q 0,2.28 1.64,2.36 z m -5.92,-23.76 v 0 0 q 0,-1.56 1.3,-2.4 v 0 0 q 1.3,-0.84 3.18,-0.84 v 0 0 q 1.88,0 3.02,0.84 v 0 0 q 1.14,0.84 1.14,2.4 v 0 0 q 0,1.56 -1.26,2.36 v 0 0 q -1.26,0.8 -3.14,0.8 v 0 0 q -1.88,0 -3.06,-0.8 v 0 0 q -1.18,-0.8 -1.18,-2.36 z m 12.16,9.24 v 0 0 q 1.36,-1.92 3.42,-3.2 v 0 0 q 2.06,-1.28 4.58,-1.28 v 0 0 q 2.52,0 3.72,0.8 v 0 l 7.84,-0.8 -2.72,15.36 v 0 Q 215.44,2 212.48,5.08 v 0 0 Q 209.64,8 204.12,8 v 0 0 q -4.2,0 -6.6,-1.32 v 0 0 q -2.4,-1.32 -2.4,-3.52 v 0 0 q 0,-1.64 1.24,-2.58 v 0 0 q 1.24,-0.94 3.16,-0.94 v 0 0 q 1.68,0 2.96,0.76 v 0 0 q 0.76,0.4 1.12,0.96 v 0 0 q -0.92,0.8 -0.92,2.12 v 0 0 q 0,1.72 1.6,1.72 v 0 0 q 2.68,0 4.2,-6.32 v 0 0 q 0.44,-1.72 0.8,-3.44 v 0 0 q -1.8,2.2 -5.88,2.2 v 0 0 q -2.84,0 -4.48,-1.36 v 0 0 q -1.64,-1.36 -1.64,-4.56 v 0 0 q 0,-2 0.68,-4.26 v 0 0 q 0.68,-2.26 2.04,-4.18 z m 5.2,8.56 v 0 0 q 0,2.72 1.4,2.72 v 0 0 q 0.96,0 1.88,-1.04 v 0 0 q 0.72,-0.84 1,-2.08 v 0 l 2.04,-10.28 v 0 q -0.2,-0.04 -0.4,-0.12 v 0 0 q -0.4,-0.16 -0.92,-0.16 v 0 0 q -2.44,0 -3.88,4 v 0 0 q -1.12,3.12 -1.12,6.96 z m 32.84,8.96 v 0 0 q -4.84,0 -4.84,-3.76 v 0 0 q 0.04,-1.04 0.36,-2.8 v 0 l 0.72,-3.68 v 0 q 1.08,-5.2 1.08,-6.36 v 0 0 q 0,-2.32 -1.36,-2.32 v 0 0 q -2.28,0 -3.48,5.96 v 0 L 228.16,0 l -8.04,0.8 4.16,-21.24 6.56,-0.76 -0.64,3.92 v 0 q 1.88,-3.92 7.64,-3.92 v 0 0 q 2.8,0 3.98,1.18 v 0 0 q 1.18,1.18 1.18,3.82 v 0 0 q 0,2.48 -1.28,8.28 v 0 0 q -0.6,2.6 -0.6,3.58 v 0 0 q 0,0.98 0.54,1.54 v 0 0 q 0.54,0.56 1.34,0.64 v 0 0 Q 242.6,-0.8 241.22,0 v 0 0 q -1.38,0.8 -3.18,0.8 z"
         fill="#444444"
         id="path543"
         style="fill:#000000" />
    </g>
  </g>
  <style
     id="style549">text {
  font-size: 64px;
  font-family: Arial Black;
  dominant-baseline: central;
  text-anchor: middle;
}</style>
</svg>
